<svg width="224" height="222" viewBox="0 0 224 222" fill="none" xmlns="http://www.w3.org/2000/svg">
<path d="M99.5291 23.6C99.5291 21.8667 99.8357 20.1733 100.449 18.52C101.089 16.84 102.009 15.32 103.209 13.96C104.409 12.5733 105.876 11.48 107.609 10.68C109.342 9.85333 111.316 9.44 113.529 9.44C116.142 9.44 118.396 10.0133 120.289 11.16C122.209 12.3067 123.636 13.8 124.569 15.64L120.329 18.56C119.849 17.4933 119.222 16.6533 118.449 16.04C117.676 15.4 116.849 14.96 115.969 14.72C115.089 14.4533 114.222 14.32 113.369 14.32C111.982 14.32 110.769 14.6 109.729 15.16C108.716 15.72 107.862 16.4533 107.169 17.36C106.476 18.2667 105.956 19.28 105.609 20.4C105.289 21.52 105.129 22.64 105.129 23.76C105.129 25.0133 105.329 26.2267 105.729 27.4C106.129 28.5467 106.689 29.5733 107.409 30.48C108.156 31.36 109.036 32.0667 110.049 32.6C111.089 33.1067 112.222 33.36 113.449 33.36C114.329 33.36 115.222 33.2133 116.129 32.92C117.036 32.6267 117.876 32.16 118.649 31.52C119.422 30.88 120.022 30.0533 120.449 29.04L124.969 31.64C124.409 33.0533 123.489 34.2533 122.209 35.24C120.956 36.2267 119.542 36.9733 117.969 37.48C116.396 37.9867 114.836 38.24 113.289 38.24C111.262 38.24 109.409 37.8267 107.729 37C106.049 36.1467 104.596 35.0267 103.369 33.64C102.169 32.2267 101.222 30.6533 100.529 28.92C99.8624 27.16 99.5291 25.3867 99.5291 23.6Z" fill="white"/>
<path d="M144.004 45.6103C142.13 44.7078 140.597 43.5259 139.407 42.0647C138.24 40.615 137.4 39.0113 136.884 37.2538C136.405 35.4838 136.235 33.6853 136.375 31.8584C136.526 30.0075 136.995 28.2651 137.782 26.6314C138.604 24.9255 139.697 23.4542 141.062 22.2174C142.463 20.9681 144.005 20.0089 145.689 19.3399C147.408 18.6583 149.192 18.3337 151.042 18.3658C152.926 18.3856 154.782 18.8351 156.608 19.7144C158.458 20.6053 159.96 21.7877 161.115 23.2614C162.294 24.7467 163.123 26.3743 163.603 28.1443C164.082 29.9143 164.252 31.7128 164.112 33.5397C163.972 35.3666 163.509 37.0969 162.722 38.7307C161.912 40.4125 160.819 41.8838 159.442 43.1447C158.077 44.3815 156.535 45.3407 154.816 46.0222C153.132 46.6913 151.354 47.0039 149.48 46.9602C147.631 46.928 145.806 46.478 144.004 45.6103ZM142.828 29.0611C142.295 30.1663 141.949 31.3165 141.788 32.5115C141.626 33.7066 141.661 34.863 141.893 35.9807C142.16 37.086 142.634 38.0987 143.315 39.0189C144.033 39.9266 144.98 40.664 146.157 41.2309C147.358 41.8094 148.543 42.084 149.712 42.0548C150.892 42.0014 151.991 41.7168 153.009 41.2007C154.038 40.6606 154.952 39.9613 155.751 39.1026C156.584 38.2315 157.25 37.2793 157.748 36.2462C158.28 35.141 158.609 33.9971 158.734 32.8145C158.896 31.6194 158.843 30.4692 158.576 29.364C158.345 28.2463 157.87 27.2336 157.153 26.3258C156.472 25.4056 155.554 24.6679 154.401 24.1125C153.176 23.5224 151.973 23.254 150.793 23.3073C149.649 23.3482 148.567 23.6266 147.549 24.1427C146.531 24.6587 145.611 25.3403 144.789 26.1874C143.99 27.0461 143.337 28.004 142.828 29.0611Z" fill="white"/>
<path d="M162.305 56.9974L184.509 39.2903L190.943 47.3588C192.872 49.7772 193.984 52.1986 194.28 54.6229C194.597 57.0305 194.236 59.3143 193.195 61.4741C192.176 63.6173 190.645 65.5036 188.601 67.133C186.35 68.9287 184.032 70.0433 181.65 70.4769C179.267 70.9105 176.96 70.6696 174.729 69.7541C172.515 68.8594 170.518 67.2967 168.739 65.0659L162.305 56.9974ZM185.135 62.786C186.573 61.6388 187.627 60.3723 188.295 58.9865C188.985 57.5841 189.241 56.1518 189.064 54.6898C188.908 53.2111 188.273 51.7733 187.159 50.3764L184.166 46.6237L169.531 58.2954L172.523 62.0482C173.654 63.4659 174.923 64.4153 176.33 64.8964C177.757 65.3609 179.223 65.4027 180.727 65.0219C182.269 64.6453 183.738 63.9 185.135 62.786Z" fill="white"/>
<path d="M190.374 104.567L185.655 105.644L181.267 86.4187L208.955 80.0991L213.263 98.9737L208.544 100.051L205.464 86.5577L198.796 88.0797L201.457 99.7399L197.09 100.737L194.428 89.0766L187.214 90.7233L190.374 104.567Z" fill="white"/>
<path d="M187.764 166.438L188.812 169.679L191.271 168.007L192.636 170.017L189.846 171.527L192.379 173.291L190.608 175.511L188.325 173.434L187.498 176.459L185.236 175.575L186.293 172.838L182.901 172.537L183.134 170.063L186.602 170.526L185.404 167.217L187.764 166.438Z" fill="white"/>
<path d="M124.471 198.4C124.471 200.133 124.164 201.827 123.551 203.48C122.911 205.16 121.991 206.68 120.791 208.04C119.591 209.427 118.124 210.52 116.391 211.32C114.658 212.147 112.684 212.56 110.471 212.56C107.858 212.56 105.604 211.987 103.711 210.84C101.791 209.693 100.364 208.2 99.4309 206.36L103.671 203.44C104.151 204.507 104.778 205.347 105.551 205.96C106.324 206.6 107.151 207.04 108.031 207.28C108.911 207.547 109.778 207.68 110.631 207.68C112.018 207.68 113.231 207.4 114.271 206.84C115.284 206.28 116.138 205.547 116.831 204.64C117.524 203.733 118.044 202.72 118.391 201.6C118.711 200.48 118.871 199.36 118.871 198.24C118.871 196.987 118.671 195.773 118.271 194.6C117.871 193.453 117.311 192.427 116.591 191.52C115.844 190.64 114.964 189.933 113.951 189.4C112.911 188.893 111.778 188.64 110.551 188.64C109.671 188.64 108.778 188.787 107.871 189.08C106.964 189.373 106.124 189.84 105.351 190.48C104.578 191.12 103.978 191.947 103.551 192.96L99.0309 190.36C99.5909 188.947 100.511 187.747 101.791 186.76C103.044 185.773 104.458 185.027 106.031 184.52C107.604 184.013 109.164 183.76 110.711 183.76C112.738 183.76 114.591 184.173 116.271 185C117.951 185.853 119.404 186.973 120.631 188.36C121.831 189.773 122.778 191.347 123.471 193.08C124.138 194.84 124.471 196.613 124.471 198.4Z" fill="white"/>
<path d="M79.9963 176.39C81.8703 177.292 83.4026 178.474 84.5931 179.935C85.7596 181.385 86.6005 182.989 87.1156 184.746C87.5951 186.516 87.7649 188.315 87.6251 190.142C87.4736 191.993 87.0045 193.735 86.2178 195.369C85.3963 197.074 84.303 198.546 82.9378 199.783C81.537 201.032 79.9948 201.991 78.3111 202.66C76.5918 203.342 74.8076 203.666 72.9584 203.634C71.0736 203.614 69.2183 203.165 67.3923 202.286C65.5423 201.395 64.0399 200.212 62.8849 198.739C61.7059 197.253 60.8767 195.626 60.3972 193.856C59.9177 192.086 59.7478 190.287 59.8877 188.46C60.0275 186.633 60.4908 184.903 61.2776 183.269C62.0875 181.587 63.1809 180.116 64.5576 178.855C65.9228 177.618 67.465 176.659 69.1843 175.978C70.868 175.309 72.6464 174.996 74.5196 175.04C76.3688 175.072 78.1943 175.522 79.9963 176.39ZM81.1723 192.939C81.7046 191.834 82.0513 190.684 82.2124 189.488C82.3736 188.293 82.3385 187.137 82.1072 186.019C81.8404 184.914 81.3661 183.901 80.6846 182.981C79.9674 182.073 79.0202 181.336 77.8429 180.769C76.6416 180.191 75.4567 179.916 74.2883 179.945C73.1084 179.999 72.0093 180.283 70.9913 180.799C69.9616 181.339 69.0477 182.039 68.2494 182.897C67.4155 183.769 66.7498 184.721 66.2523 185.754C65.7201 186.859 65.3912 188.003 65.2656 189.186C65.1044 190.381 65.1573 191.531 65.4242 192.636C65.6555 193.754 66.1297 194.766 66.8469 195.674C67.5285 196.594 68.4459 197.332 69.5991 197.888C70.8244 198.478 72.0271 198.746 73.2071 198.693C74.3514 198.652 75.4327 198.373 76.4507 197.857C77.4688 197.341 78.389 196.66 79.2113 195.813C80.0096 194.954 80.6633 193.996 81.1723 192.939Z" fill="white"/>
<path d="M61.6952 165.003L39.4911 182.71L33.0567 174.641C31.1281 172.223 30.0157 169.801 29.7196 167.377C29.4026 164.969 29.7643 162.686 30.8046 160.526C31.8241 158.383 33.3554 156.496 35.3986 154.867C37.6503 153.071 39.9675 151.957 42.3504 151.523C44.7332 151.089 47.0401 151.33 49.2709 152.246C51.4851 153.141 53.4817 154.703 55.2607 156.934L61.6952 165.003ZM38.8652 159.214C37.4266 160.361 36.3731 161.628 35.7046 163.014C35.0153 164.416 34.759 165.848 34.9359 167.31C35.0918 168.789 35.7268 170.227 36.8408 171.624L39.8335 175.376L54.4694 163.705L51.4767 159.952C50.3461 158.534 49.0773 157.585 47.6704 157.104C46.2427 156.639 44.7768 156.597 43.2728 156.978C41.7313 157.355 40.2621 158.1 38.8652 159.214Z" fill="white"/>
<path d="M33.6264 117.433L38.3451 116.356L42.7332 135.581L15.0452 141.901L10.7372 123.026L15.4559 121.949L18.5356 135.442L25.2041 133.92L22.5427 122.26L26.9104 121.263L29.5718 132.923L36.7862 131.277L33.6264 117.433Z" fill="white"/>
<path d="M36.236 55.5615L35.1878 52.321L32.729 53.9927L31.3641 51.9833L34.1542 50.4735L31.6214 48.7095L33.3921 46.4891L35.6755 48.5658L36.5017 45.541L38.7644 46.4246L37.7067 49.1624L41.0992 49.4632L40.8657 51.9374L37.3979 51.4742L38.5962 54.7833L36.236 55.5615Z" fill="white"/>
</svg>
