<svg width="589" height="259" viewBox="0 0 589 259" fill="none" xmlns="http://www.w3.org/2000/svg">
<path d="M59.216 119V59.36H85.592C88.336 59.36 90.856 59.92 93.152 61.04C95.504 62.16 97.52 63.672 99.2 65.576C100.936 67.48 102.252 69.608 103.148 71.96C104.1 74.312 104.576 76.72 104.576 79.184C104.576 81.704 104.128 84.14 103.232 86.492C102.392 88.788 101.16 90.804 99.536 92.54C97.912 94.276 96.008 95.62 93.824 96.572L107.432 119H94.664L82.4 99.008H70.808V119H59.216ZM70.808 88.844H85.34C86.796 88.844 88.084 88.424 89.204 87.584C90.324 86.688 91.22 85.512 91.892 84.056C92.564 82.6 92.9 80.976 92.9 79.184C92.9 77.28 92.508 75.628 91.724 74.228C90.94 72.772 89.932 71.624 88.7 70.784C87.524 69.944 86.236 69.524 84.836 69.524H70.808V88.844ZM110.225 105.98C110.225 103.124 111.009 100.632 112.577 98.504C114.201 96.32 116.441 94.64 119.297 93.464C122.153 92.288 125.429 91.7 129.125 91.7C130.973 91.7 132.849 91.84 134.753 92.12C136.657 92.4 138.309 92.848 139.709 93.464V91.112C139.709 88.312 138.869 86.156 137.189 84.644C135.565 83.132 133.129 82.376 129.881 82.376C127.473 82.376 125.177 82.796 122.993 83.636C120.809 84.476 118.513 85.708 116.105 87.332L112.493 79.94C115.405 78.036 118.373 76.608 121.397 75.656C124.477 74.704 127.697 74.228 131.057 74.228C137.329 74.228 142.201 75.796 145.673 78.932C149.201 82.068 150.965 86.548 150.965 92.372V106.4C150.965 107.576 151.161 108.416 151.553 108.92C152.001 109.424 152.701 109.732 153.653 109.844V119C152.645 119.168 151.721 119.308 150.881 119.42C150.097 119.532 149.425 119.588 148.865 119.588C146.625 119.588 144.917 119.084 143.741 118.076C142.621 117.068 141.921 115.836 141.641 114.38L141.389 112.112C139.485 114.576 137.105 116.48 134.249 117.824C131.393 119.168 128.481 119.84 125.513 119.84C122.601 119.84 119.969 119.252 117.617 118.076C115.321 116.844 113.501 115.192 112.157 113.12C110.869 110.992 110.225 108.612 110.225 105.98ZM137.609 108.248C138.225 107.576 138.729 106.904 139.121 106.232C139.513 105.56 139.709 104.944 139.709 104.384V99.932C138.365 99.372 136.909 98.952 135.341 98.672C133.773 98.336 132.289 98.168 130.889 98.168C127.977 98.168 125.569 98.812 123.665 100.1C121.817 101.332 120.893 102.984 120.893 105.056C120.893 106.176 121.201 107.24 121.817 108.248C122.433 109.256 123.329 110.068 124.505 110.684C125.681 111.3 127.081 111.608 128.705 111.608C130.385 111.608 132.037 111.3 133.661 110.684C135.285 110.012 136.601 109.2 137.609 108.248ZM229.859 119H218.603V94.304C218.603 90.832 217.987 88.284 216.755 86.66C215.579 84.98 213.927 84.14 211.799 84.14C209.615 84.14 207.515 85.008 205.499 86.744C203.539 88.424 202.139 90.636 201.299 93.38V119H190.043V94.304C190.043 90.776 189.427 88.2 188.195 86.576C187.019 84.952 185.367 84.14 183.239 84.14C181.055 84.14 178.955 84.98 176.939 86.66C174.979 88.34 173.579 90.552 172.739 93.296V119H161.483V74.984H171.647V83.132C173.327 80.276 175.567 78.092 178.367 76.58C181.167 75.012 184.387 74.228 188.027 74.228C191.667 74.228 194.495 75.124 196.511 76.916C198.583 78.708 199.899 80.92 200.459 83.552C202.251 80.528 204.519 78.232 207.263 76.664C210.063 75.04 213.199 74.228 216.671 74.228C219.415 74.228 221.627 74.732 223.307 75.74C225.043 76.692 226.387 78.008 227.339 79.688C228.291 81.312 228.935 83.16 229.271 85.232C229.663 87.304 229.859 89.404 229.859 91.532V119ZM236.635 105.98C236.635 103.124 237.419 100.632 238.987 98.504C240.611 96.32 242.851 94.64 245.707 93.464C248.563 92.288 251.839 91.7 255.535 91.7C257.383 91.7 259.259 91.84 261.163 92.12C263.067 92.4 264.719 92.848 266.119 93.464V91.112C266.119 88.312 265.279 86.156 263.599 84.644C261.975 83.132 259.539 82.376 256.291 82.376C253.883 82.376 251.587 82.796 249.403 83.636C247.219 84.476 244.923 85.708 242.515 87.332L238.903 79.94C241.815 78.036 244.783 76.608 247.807 75.656C250.887 74.704 254.107 74.228 257.467 74.228C263.739 74.228 268.611 75.796 272.083 78.932C275.611 82.068 277.375 86.548 277.375 92.372V106.4C277.375 107.576 277.571 108.416 277.963 108.92C278.411 109.424 279.111 109.732 280.063 109.844V119C279.055 119.168 278.131 119.308 277.291 119.42C276.507 119.532 275.835 119.588 275.275 119.588C273.035 119.588 271.327 119.084 270.151 118.076C269.031 117.068 268.331 115.836 268.051 114.38L267.799 112.112C265.895 114.576 263.515 116.48 260.659 117.824C257.803 119.168 254.891 119.84 251.923 119.84C249.011 119.84 246.379 119.252 244.027 118.076C241.731 116.844 239.911 115.192 238.567 113.12C237.279 110.992 236.635 108.612 236.635 105.98ZM264.019 108.248C264.635 107.576 265.139 106.904 265.531 106.232C265.923 105.56 266.119 104.944 266.119 104.384V99.932C264.775 99.372 263.319 98.952 261.751 98.672C260.183 98.336 258.699 98.168 257.299 98.168C254.387 98.168 251.979 98.812 250.075 100.1C248.227 101.332 247.303 102.984 247.303 105.056C247.303 106.176 247.611 107.24 248.227 108.248C248.843 109.256 249.739 110.068 250.915 110.684C252.091 111.3 253.491 111.608 255.115 111.608C256.795 111.608 258.447 111.3 260.071 110.684C261.695 110.012 263.011 109.2 264.019 108.248ZM285.206 96.992C285.206 92.736 286.046 88.9 287.726 85.484C289.406 82.012 291.73 79.268 294.698 77.252C297.666 75.236 301.054 74.228 304.862 74.228C308.11 74.228 311.022 75.04 313.598 76.664C316.23 78.232 318.274 80.248 319.73 82.712V57.68H330.986V106.4C330.986 107.576 331.182 108.416 331.574 108.92C331.966 109.424 332.638 109.732 333.59 109.844V119C331.63 119.392 330.034 119.588 328.802 119.588C326.786 119.588 325.106 119.084 323.762 118.076C322.474 117.068 321.746 115.752 321.578 114.128L321.41 111.356C319.786 114.1 317.574 116.2 314.774 117.656C312.03 119.112 309.146 119.84 306.122 119.84C303.098 119.84 300.298 119.252 297.722 118.076C295.202 116.9 292.99 115.276 291.086 113.204C289.238 111.132 287.782 108.724 286.718 105.98C285.71 103.18 285.206 100.184 285.206 96.992ZM319.73 102.872V92.372C319.17 90.748 318.274 89.292 317.042 88.004C315.81 86.716 314.438 85.708 312.926 84.98C311.414 84.196 309.902 83.804 308.39 83.804C306.654 83.804 305.086 84.168 303.686 84.896C302.286 85.624 301.054 86.604 299.99 87.836C298.982 89.068 298.198 90.496 297.638 92.12C297.134 93.744 296.882 95.452 296.882 97.244C296.882 99.036 297.162 100.744 297.722 102.368C298.338 103.936 299.206 105.308 300.326 106.484C301.446 107.66 302.734 108.584 304.19 109.256C305.702 109.928 307.326 110.264 309.062 110.264C310.126 110.264 311.19 110.096 312.254 109.76C313.374 109.368 314.41 108.864 315.362 108.248C316.37 107.576 317.238 106.792 317.966 105.896C318.75 104.944 319.338 103.936 319.73 102.872ZM382.942 119H371.686V94.304C371.686 90.888 371.014 88.34 369.67 86.66C368.382 84.98 366.59 84.14 364.294 84.14C362.95 84.14 361.522 84.532 360.01 85.316C358.498 86.1 357.126 87.192 355.894 88.592C354.718 89.936 353.85 91.504 353.29 93.296V119H342.034V57.68H353.29V83.132C354.914 80.332 357.126 78.148 359.926 76.58C362.726 75.012 365.778 74.228 369.082 74.228C371.938 74.228 374.262 74.732 376.054 75.74C377.846 76.692 379.246 78.008 380.254 79.688C381.262 81.312 381.962 83.16 382.354 85.232C382.746 87.248 382.942 89.348 382.942 91.532V119ZM389.705 105.98C389.705 103.124 390.489 100.632 392.057 98.504C393.681 96.32 395.921 94.64 398.777 93.464C401.633 92.288 404.909 91.7 408.605 91.7C410.453 91.7 412.329 91.84 414.233 92.12C416.137 92.4 417.789 92.848 419.189 93.464V91.112C419.189 88.312 418.349 86.156 416.669 84.644C415.045 83.132 412.609 82.376 409.361 82.376C406.953 82.376 404.657 82.796 402.473 83.636C400.289 84.476 397.993 85.708 395.585 87.332L391.973 79.94C394.885 78.036 397.853 76.608 400.877 75.656C403.957 74.704 407.177 74.228 410.537 74.228C416.809 74.228 421.681 75.796 425.153 78.932C428.681 82.068 430.445 86.548 430.445 92.372V106.4C430.445 107.576 430.641 108.416 431.033 108.92C431.481 109.424 432.181 109.732 433.133 109.844V119C432.125 119.168 431.201 119.308 430.361 119.42C429.577 119.532 428.905 119.588 428.345 119.588C426.105 119.588 424.397 119.084 423.221 118.076C422.101 117.068 421.401 115.836 421.121 114.38L420.869 112.112C418.965 114.576 416.585 116.48 413.729 117.824C410.873 119.168 407.961 119.84 404.993 119.84C402.081 119.84 399.449 119.252 397.097 118.076C394.801 116.844 392.981 115.192 391.637 113.12C390.349 110.992 389.705 108.612 389.705 105.98ZM417.089 108.248C417.705 107.576 418.209 106.904 418.601 106.232C418.993 105.56 419.189 104.944 419.189 104.384V99.932C417.845 99.372 416.389 98.952 414.821 98.672C413.253 98.336 411.769 98.168 410.369 98.168C407.457 98.168 405.049 98.812 403.145 100.1C401.297 101.332 400.373 102.984 400.373 105.056C400.373 106.176 400.681 107.24 401.297 108.248C401.913 109.256 402.809 110.068 403.985 110.684C405.161 111.3 406.561 111.608 408.185 111.608C409.865 111.608 411.517 111.3 413.141 110.684C414.765 110.012 416.081 109.2 417.089 108.248ZM481.872 119H470.616V94.304C470.616 90.776 470 88.2 468.768 86.576C467.536 84.952 465.828 84.14 463.644 84.14C462.132 84.14 460.592 84.532 459.024 85.316C457.512 86.1 456.14 87.192 454.908 88.592C453.676 89.936 452.78 91.504 452.22 93.296V119H440.964V74.984H451.128V83.132C452.248 81.228 453.676 79.632 455.412 78.344C457.148 77 459.136 75.992 461.376 75.32C463.672 74.592 466.08 74.228 468.6 74.228C471.344 74.228 473.584 74.732 475.32 75.74C477.112 76.692 478.456 78.008 479.352 79.688C480.304 81.312 480.948 83.16 481.284 85.232C481.676 87.304 481.872 89.404 481.872 91.532V119ZM488.635 105.98C488.635 103.124 489.419 100.632 490.987 98.504C492.611 96.32 494.851 94.64 497.707 93.464C500.563 92.288 503.839 91.7 507.535 91.7C509.383 91.7 511.259 91.84 513.163 92.12C515.067 92.4 516.719 92.848 518.119 93.464V91.112C518.119 88.312 517.279 86.156 515.599 84.644C513.975 83.132 511.539 82.376 508.291 82.376C505.883 82.376 503.587 82.796 501.403 83.636C499.219 84.476 496.923 85.708 494.515 87.332L490.903 79.94C493.815 78.036 496.783 76.608 499.807 75.656C502.887 74.704 506.107 74.228 509.467 74.228C515.739 74.228 520.611 75.796 524.083 78.932C527.611 82.068 529.375 86.548 529.375 92.372V106.4C529.375 107.576 529.571 108.416 529.963 108.92C530.411 109.424 531.111 109.732 532.063 109.844V119C531.055 119.168 530.131 119.308 529.291 119.42C528.507 119.532 527.835 119.588 527.275 119.588C525.035 119.588 523.327 119.084 522.151 118.076C521.031 117.068 520.331 115.836 520.051 114.38L519.799 112.112C517.895 114.576 515.515 116.48 512.659 117.824C509.803 119.168 506.891 119.84 503.923 119.84C501.011 119.84 498.379 119.252 496.027 118.076C493.731 116.844 491.911 115.192 490.567 113.12C489.279 110.992 488.635 108.612 488.635 105.98ZM516.019 108.248C516.635 107.576 517.139 106.904 517.531 106.232C517.923 105.56 518.119 104.944 518.119 104.384V99.932C516.775 99.372 515.319 98.952 513.751 98.672C512.183 98.336 510.699 98.168 509.299 98.168C506.387 98.168 503.979 98.812 502.075 100.1C500.227 101.332 499.303 102.984 499.303 105.056C499.303 106.176 499.611 107.24 500.227 108.248C500.843 109.256 501.739 110.068 502.915 110.684C504.091 111.3 505.491 111.608 507.115 111.608C508.795 111.608 510.447 111.3 512.071 110.684C513.695 110.012 515.011 109.2 516.019 108.248ZM105.332 183.628C105.332 186.596 104.576 189.256 103.064 191.608C101.552 193.904 99.508 195.724 96.932 197.068C94.412 198.356 91.64 199 88.616 199H60.476V139.36H89.204C92.004 139.36 94.412 140.116 96.428 141.628C98.5 143.084 100.068 144.988 101.132 147.34C102.252 149.636 102.812 152.044 102.812 154.564C102.812 157.532 102.056 160.276 100.544 162.796C99.032 165.316 96.932 167.192 94.244 168.424C97.66 169.432 100.348 171.308 102.308 174.052C104.324 176.796 105.332 179.988 105.332 183.628ZM99.452 182.62C99.452 180.604 99.004 178.756 98.108 177.076C97.212 175.34 95.98 173.94 94.412 172.876C92.9 171.812 91.164 171.28 89.204 171.28H66.356V193.876H88.616C90.632 193.876 92.452 193.344 94.076 192.28C95.7 191.216 96.988 189.844 97.94 188.164C98.948 186.428 99.452 184.58 99.452 182.62ZM66.356 144.484V166.492H86.852C88.812 166.492 90.548 165.988 92.06 164.98C93.572 163.916 94.776 162.544 95.672 160.864C96.568 159.184 97.016 157.392 97.016 155.488C97.016 153.472 96.596 151.652 95.756 150.028C94.916 148.348 93.768 147.004 92.312 145.996C90.856 144.988 89.204 144.484 87.356 144.484H66.356ZM111.717 186.4C111.717 183.656 112.501 181.304 114.069 179.344C115.637 177.328 117.793 175.788 120.537 174.724C123.337 173.604 126.557 173.044 130.197 173.044C132.325 173.044 134.537 173.212 136.833 173.548C139.129 173.884 141.173 174.388 142.965 175.06V171.364C142.965 167.668 141.873 164.728 139.689 162.544C137.505 160.36 134.481 159.268 130.617 159.268C128.265 159.268 125.941 159.716 123.645 160.612C121.405 161.452 119.053 162.712 116.589 164.392L114.405 160.36C117.261 158.4 120.061 156.944 122.805 155.992C125.549 154.984 128.349 154.48 131.205 154.48C136.581 154.48 140.837 156.02 143.973 159.1C147.109 162.18 148.677 166.436 148.677 171.868V192.112C148.677 192.896 148.845 193.484 149.181 193.876C149.517 194.212 150.049 194.408 150.777 194.464V199C150.161 199.056 149.629 199.112 149.181 199.168C148.733 199.224 148.397 199.224 148.173 199.168C146.773 199.112 145.709 198.664 144.981 197.824C144.253 196.984 143.861 196.088 143.805 195.136L143.721 191.944C141.761 194.464 139.213 196.424 136.077 197.824C132.941 199.168 129.749 199.84 126.501 199.84C123.701 199.84 121.153 199.252 118.857 198.076C116.617 196.844 114.853 195.22 113.565 193.204C112.333 191.132 111.717 188.864 111.717 186.4ZM141.033 189.76C141.649 188.976 142.125 188.22 142.461 187.492C142.797 186.764 142.965 186.12 142.965 185.56V179.176C141.061 178.448 139.073 177.888 137.001 177.496C134.985 177.104 132.941 176.908 130.869 176.908C126.781 176.908 123.477 177.72 120.957 179.344C118.437 180.968 117.177 183.18 117.177 185.98C117.177 187.604 117.597 189.144 118.437 190.6C119.277 192 120.509 193.176 122.133 194.128C123.757 195.024 125.661 195.472 127.845 195.472C130.589 195.472 133.137 194.94 135.489 193.876C137.897 192.812 139.745 191.44 141.033 189.76ZM178.575 199.588C175.607 199.588 172.863 198.972 170.343 197.74C167.823 196.508 165.639 194.856 163.791 192.784C161.999 190.656 160.599 188.248 159.591 185.56C158.583 182.872 158.079 180.1 158.079 177.244C158.079 174.164 158.555 171.28 159.507 168.592C160.515 165.848 161.915 163.412 163.707 161.284C165.555 159.156 167.711 157.504 170.175 156.328C172.639 155.096 175.383 154.48 178.407 154.48C182.159 154.48 185.407 155.432 188.151 157.336C190.951 159.24 193.303 161.592 195.207 164.392V155.236H200.331V199.168C200.331 203.2 199.351 206.588 197.391 209.332C195.487 212.132 192.883 214.232 189.579 215.632C186.331 217.032 182.775 217.732 178.911 217.732C173.927 217.732 169.895 216.836 166.815 215.044C163.735 213.252 161.215 210.844 159.255 207.82L162.783 205.048C164.519 207.792 166.815 209.836 169.671 211.18C172.583 212.524 175.663 213.196 178.911 213.196C181.767 213.196 184.371 212.664 186.723 211.6C189.131 210.592 191.035 209.052 192.435 206.98C193.891 204.908 194.619 202.304 194.619 199.168V190.516C192.939 193.26 190.643 195.472 187.731 197.152C184.819 198.776 181.767 199.588 178.575 199.588ZM180.171 194.8C181.907 194.8 183.559 194.492 185.127 193.876C186.751 193.26 188.235 192.448 189.579 191.44C190.923 190.376 192.043 189.2 192.939 187.912C193.835 186.624 194.395 185.308 194.619 183.964V170.44C193.779 168.312 192.575 166.436 191.007 164.812C189.439 163.132 187.647 161.844 185.631 160.948C183.671 159.996 181.627 159.52 179.499 159.52C177.035 159.52 174.823 160.052 172.863 161.116C170.959 162.124 169.335 163.496 167.991 165.232C166.703 166.912 165.695 168.816 164.967 170.944C164.239 173.072 163.875 175.2 163.875 177.328C163.875 179.68 164.295 181.92 165.135 184.048C165.975 186.12 167.123 187.996 168.579 189.676C170.091 191.3 171.827 192.56 173.787 193.456C175.803 194.352 177.931 194.8 180.171 194.8ZM212.525 180.94V155.236H218.237V179.932C218.237 184.916 219.077 188.64 220.757 191.104C222.493 193.568 225.041 194.8 228.401 194.8C230.641 194.8 232.797 194.324 234.869 193.372C236.997 192.364 238.873 190.964 240.497 189.172C242.121 187.324 243.353 185.196 244.193 182.788V155.236H249.905V192.112C249.905 192.896 250.073 193.484 250.409 193.876C250.745 194.212 251.249 194.408 251.921 194.464V199C251.249 199.056 250.717 199.084 250.325 199.084C249.933 199.14 249.569 199.168 249.233 199.168C248.113 199.056 247.133 198.608 246.293 197.824C245.509 197.04 245.089 196.088 245.033 194.968L244.865 189.088C242.961 192.448 240.357 195.08 237.053 196.984C233.805 198.888 230.277 199.84 226.469 199.84C221.877 199.84 218.405 198.244 216.053 195.052C213.701 191.86 212.525 187.156 212.525 180.94ZM277.184 199.84C273.6 199.84 270.268 199.252 267.188 198.076C264.108 196.9 261.448 195.108 259.208 192.7L261.56 188.668C264.024 190.964 266.488 192.644 268.952 193.708C271.472 194.716 274.132 195.22 276.932 195.22C280.348 195.22 283.12 194.548 285.248 193.204C287.376 191.804 288.44 189.816 288.44 187.24C288.44 185.504 287.908 184.188 286.844 183.292C285.836 182.34 284.352 181.584 282.392 181.024C280.488 180.408 278.192 179.764 275.504 179.092C272.48 178.252 269.932 177.384 267.86 176.488C265.844 175.536 264.304 174.36 263.24 172.96C262.232 171.504 261.728 169.628 261.728 167.332C261.728 164.476 262.428 162.124 263.828 160.276C265.284 158.372 267.244 156.944 269.708 155.992C272.228 154.984 275.028 154.48 278.108 154.48C281.468 154.48 284.436 155.012 287.012 156.076C289.588 157.14 291.688 158.624 293.312 160.528L290.54 164.392C288.972 162.6 287.096 161.284 284.912 160.444C282.784 159.548 280.404 159.1 277.772 159.1C275.98 159.1 274.272 159.352 272.648 159.856C271.024 160.304 269.68 161.088 268.616 162.208C267.608 163.272 267.104 164.756 267.104 166.66C267.104 168.228 267.496 169.46 268.28 170.356C269.064 171.196 270.24 171.924 271.808 172.54C273.376 173.1 275.308 173.716 277.604 174.388C280.908 175.284 283.792 176.208 286.256 177.16C288.72 178.056 290.624 179.232 291.968 180.688C293.312 182.144 293.984 184.188 293.984 186.82C293.984 190.908 292.444 194.1 289.364 196.396C286.284 198.692 282.224 199.84 277.184 199.84Z" fill="white"/>
</svg>
